<?xml version="1.0" standalone="no"?>
<!DOCTYPE svg PUBLIC "-//W3C//DTD SVG 20010904//EN"
 "http://www.w3.org/TR/2001/REC-SVG-20010904/DTD/svg10.dtd">
<svg version="1.0" xmlns="http://www.w3.org/2000/svg"
 width="457.000000pt" height="457.000000pt" viewBox="0 0 457.000000 457.000000"
 preserveAspectRatio="xMidYMid meet">
<metadata>
Created by potrace 1.11, written by Peter Selinger 2001-2013
</metadata>
<g transform="translate(0.000000,457.000000) scale(0.100000,-0.100000)"
fill="#000000" stroke="none">
<path d="M3417 4554 c-3 -4 -19 -7 -35 -9 -15 -1 -38 -8 -50 -14 -12 -6 -22
-9 -22 -5 0 3 -6 1 -13 -5 -8 -6 -22 -12 -33 -14 -10 -2 -26 -7 -34 -10 -8 -4
-87 -32 -175 -63 -269 -95 -548 -211 -850 -355 -38 -18 -72 -33 -75 -34 -14
-2 -204 -102 -218 -115 -9 -9 -60 -40 -112 -70 -52 -30 -96 -57 -98 -62 -2 -4
-10 -8 -17 -8 -7 0 -15 -4 -17 -9 -2 -5 -10 -11 -18 -13 -8 -2 -17 -6 -20 -9
-3 -3 -48 -35 -100 -70 -52 -35 -101 -69 -108 -76 -6 -6 -21 -15 -32 -18 -11
-3 -20 -11 -20 -16 0 -5 -6 -9 -13 -9 -7 0 -30 -16 -52 -35 -22 -19 -43 -35
-46 -35 -21 0 -197 -160 -359 -325 -168 -171 -256 -272 -372 -430 -48 -66 -92
-124 -96 -130 -4 -5 -26 -39 -47 -75 -22 -36 -44 -68 -50 -72 -5 -4 -6 -8 -1
-8 5 0 1 -9 -9 -20 -10 -11 -14 -20 -9 -20 5 0 5 -4 -1 -8 -8 -6 -56 -95 -60
-112 -1 -3 -9 -23 -19 -45 -26 -59 -97 -241 -101 -260 -5 -20 -46 -160 -52
-175 -3 -8 -7 -24 -8 -35 -1 -11 -10 -58 -19 -105 -41 -201 -56 -494 -37 -725
16 -192 36 -311 88 -520 20 -77 38 -151 41 -164 2 -13 18 -31 33 -40 16 -9 29
-22 29 -29 0 -7 12 -17 28 -23 59 -23 232 -69 332 -88 58 -12 123 -26 145 -31
117 -30 846 -30 864 -1 4 6 27 12 51 15 25 2 52 7 60 10 8 3 26 7 40 10 57 9
196 48 292 82 57 19 108 36 113 38 28 8 153 66 260 121 437 223 860 606 1205
1090 35 50 67 92 70 95 3 3 10 14 17 25 55 91 99 160 112 173 9 9 15 17 13 19
-4 4 47 93 66 116 8 9 12 17 8 17 -4 0 2 16 14 34 78 127 299 619 400 891 19
50 36 92 39 95 4 3 7 12 9 20 3 14 25 86 108 345 22 66 40 123 40 128 1 4 2 8
4 10 1 1 4 15 6 32 3 16 10 35 16 42 6 7 9 13 7 14 -66 15 -348 18 -449 4 -52
-7 -98 -11 -103 -8 -10 6 0 43 35 133 16 41 31 80 32 85 2 6 8 23 14 38 118
287 154 392 159 458 6 76 -5 105 -45 121 -34 13 -81 16 -107 7 -11 -3 -38 -12
-60 -19 -44 -13 -85 -30 -159 -66 -28 -13 -56 -24 -63 -24 -7 0 -13 -4 -13
-10 0 -5 -7 -10 -16 -10 -8 0 -34 -13 -57 -29 -74 -50 -155 -85 -226 -96 -8
-1 -17 -7 -19 -13 -2 -7 -8 -12 -14 -12 -9 0 -6 90 7 180 13 91 20 168 28 298
3 39 2 42 -23 42 -15 0 -29 -3 -33 -6z m-564 -595 c13 -17 17 -32 13 -53 -7
-32 -61 -96 -82 -96 -6 0 -17 -7 -24 -15 -7 -9 -15 -14 -17 -11 -3 2 -35 -13
-72 -34 -80 -46 -127 -55 -173 -35 -18 8 -29 14 -25 15 5 0 1 7 -7 16 -39 39
6 110 94 149 25 11 48 24 52 30 4 5 8 6 8 2 0 -4 19 3 43 16 89 50 158 56 190
16z m-744 -335 c43 -9 62 -45 48 -90 -13 -43 -36 -64 -117 -106 -80 -42 -170
-106 -170 -121 0 -6 -3 -8 -6 -5 -3 4 -42 -23 -87 -59 -89 -71 -100 -81 -78
-68 10 5 12 4 7 -4 -4 -6 -11 -9 -16 -6 -4 3 -59 -44 -121 -105 -128 -124
-159 -141 -213 -115 -20 9 -38 25 -41 36 -4 10 -10 19 -14 19 -13 0 -6 36 13
66 11 16 35 44 55 63 20 18 35 38 33 42 -1 5 2 8 6 7 5 -2 44 30 88 70 43 40
101 88 129 107 27 18 60 43 73 55 12 11 22 18 22 16 0 -6 123 73 147 94 7 5
15 10 18 10 8 0 89 53 96 63 3 5 9 9 12 8 4 0 21 6 39 14 39 17 37 17 77 9z
m-1633 -1985 c25 -28 25 -91 -1 -209 -21 -95 -28 -345 -11 -385 5 -11 10 -28
11 -38 1 -11 6 -22 12 -25 5 -4 9 -28 9 -54 -1 -36 -7 -51 -26 -67 -32 -26
-75 -27 -107 -1 -14 11 -23 20 -19 20 3 0 -3 17 -14 37 -11 21 -20 45 -20 54
0 8 -3 19 -7 22 -22 23 -22 387 0 424 3 4 8 29 11 56 4 26 11 60 17 75 6 15
10 29 10 32 -1 24 16 50 42 63 44 22 71 21 93 -4z"/>
</g>
</svg>
